<svg width="34" height="32" viewBox="0 0 34 32" fill="none" xmlns="http://www.w3.org/2000/svg">
<path d="M3.75195 9.6377C3.2207 9.10645 2.81673 8.50325 2.54004 7.82812C2.26335 7.15299 2.125 6.44466 2.125 5.70312C2.125 4.91732 2.26888 4.19238 2.55664 3.52832C2.8444 2.86426 3.2373 2.2832 3.73535 1.78516C4.2334 1.28711 4.82552 0.89974 5.51172 0.623047C6.19792 0.346354 6.92285 0.202474 7.68652 0.191406C8.41699 0.191406 9.12533 0.318685 9.81152 0.573242C10.4977 0.827799 11.1064 1.2207 11.6377 1.75195L17.498 7.6123L15.9873 9.12305L12.75 5.88574L7.88574 10.75L11.123 13.9873L9.6123 15.498L3.75195 9.6377ZM7.70312 2.2832C7.22721 2.2832 6.77897 2.36621 6.3584 2.53223C5.93783 2.69824 5.57259 2.94173 5.2627 3.2627C4.9528 3.58366 4.70931 3.94336 4.53223 4.3418C4.35514 4.74023 4.26107 5.19401 4.25 5.70312C4.25 6.1237 4.30534 6.48893 4.41602 6.79883C4.52669 7.10872 4.68717 7.40202 4.89746 7.67871C5.10775 7.9554 5.33464 8.2155 5.57812 8.45898C5.82161 8.70247 6.08724 8.96257 6.375 9.23926L11.2393 4.375C10.9515 4.09831 10.6914 3.83268 10.459 3.57812C10.2266 3.32357 9.972 3.10221 9.69531 2.91406C9.41862 2.72591 9.13086 2.57096 8.83203 2.44922C8.5332 2.32747 8.1569 2.27214 7.70312 2.2832ZM34 32L23.4912 29.377L18.627 24.5127L20.1377 23.002L23.7402 26.6211C23.9173 26.0456 24.1608 25.5033 24.4707 24.9941C24.7806 24.485 25.1514 24.0146 25.583 23.583C26.0146 23.1514 26.4795 22.7861 26.9775 22.4873C27.4756 22.1885 28.0234 21.9395 28.6211 21.7402L25.002 18.1377L26.5127 16.627L31.377 21.4912L34 32ZM31.0781 29.0781L29.7168 23.6162C29.1966 23.7269 28.7152 23.904 28.2725 24.1475C27.8298 24.391 27.4258 24.6953 27.0605 25.0605C26.6953 25.4258 26.391 25.8298 26.1475 26.2725C25.904 26.7152 25.7269 27.1966 25.6162 27.7168L31.0781 29.0781ZM28.6875 1.1875C29.2741 1.1875 29.8219 1.29818 30.3311 1.51953C30.8402 1.74089 31.2939 2.04525 31.6924 2.43262C32.0908 2.81999 32.3952 3.26823 32.6055 3.77734C32.8158 4.28646 32.9264 4.83984 32.9375 5.4375C32.9375 6.00195 32.8324 6.54427 32.6221 7.06445C32.4118 7.58464 32.1019 8.04395 31.6924 8.44238L12.667 27.4678C12.5674 28.1208 12.3626 28.7184 12.0527 29.2607C11.7428 29.8031 11.3555 30.2845 10.8906 30.7051C10.4258 31.1257 9.90007 31.4411 9.31348 31.6514C8.72689 31.8617 8.10156 31.9779 7.4375 32H0V29.875C0.121745 29.875 0.249023 29.8584 0.381836 29.8252C0.514648 29.792 0.636393 29.7422 0.74707 29.6758C1.02376 29.5319 1.25065 29.3493 1.42773 29.1279C1.60482 28.9066 1.74316 28.6631 1.84277 28.3975C1.94238 28.1318 2.01432 27.8551 2.05859 27.5674C2.10286 27.2796 2.125 26.9863 2.125 26.6875C2.125 26.0345 2.23568 25.4147 2.45703 24.8281C2.67839 24.2415 2.99935 23.7103 3.41992 23.2344C3.84049 22.7585 4.31641 22.3711 4.84766 22.0723C5.37891 21.7734 5.9821 21.5687 6.65723 21.458L25.6826 2.43262C26.0811 2.03418 26.5404 1.72982 27.0605 1.51953C27.5807 1.30924 28.123 1.19857 28.6875 1.1875ZM7.4375 29.875C7.88021 29.875 8.29525 29.792 8.68262 29.626C9.06999 29.46 9.40755 29.2331 9.69531 28.9453C9.98307 28.6576 10.21 28.32 10.376 27.9326C10.542 27.5452 10.625 27.1302 10.625 26.6875C10.625 26.2448 10.542 25.8298 10.376 25.4424C10.21 25.055 9.98307 24.7174 9.69531 24.4297C9.40755 24.1419 9.06999 23.915 8.68262 23.749C8.29525 23.583 7.88021 23.5 7.4375 23.5C6.99479 23.5 6.57975 23.583 6.19238 23.749C5.80501 23.915 5.46745 24.1419 5.17969 24.4297C4.89193 24.7174 4.66504 25.055 4.49902 25.4424C4.33301 25.8298 4.25 26.2448 4.25 26.6875C4.25 27.8385 3.89583 28.901 3.1875 29.875H7.4375ZM16.0371 21.0928C15.6829 20.3955 15.2679 19.8089 14.792 19.333C14.3161 18.8571 13.7295 18.4421 13.0322 18.0879L9.36328 21.7568C10.0495 22.0225 10.6527 22.4154 11.1729 22.9355C11.693 23.4557 12.0915 24.0645 12.3682 24.7617L16.0371 21.0928ZM30.1816 6.93164C30.5911 6.52214 30.7959 6.02409 30.7959 5.4375C30.7959 5.14974 30.7406 4.87858 30.6299 4.62402C30.5192 4.36947 30.3698 4.14811 30.1816 3.95996C29.9935 3.77181 29.7666 3.61686 29.501 3.49512C29.2354 3.37337 28.9642 3.31803 28.6875 3.3291C28.1009 3.3291 27.6029 3.53385 27.1934 3.94336L14.5928 16.5273C15.2679 16.9258 15.8379 17.3574 16.3027 17.8223C16.7676 18.2871 17.1992 18.8571 17.5977 19.5322L30.1816 6.93164Z" fill="#F26622"/>
</svg>
