<svg width="30" height="30" viewBox="0 0 30 30" fill="none" xmlns="http://www.w3.org/2000/svg">
<path d="M12.5207 4.02079C12.8025 4.02079 13.0727 4.13273 13.272 4.33199C13.4712 4.53125 13.5832 4.8015 13.5832 5.08329V16.4166H24.9165C25.1733 16.4166 25.4213 16.5096 25.6148 16.6784C25.8083 16.8471 25.9342 17.0803 25.9691 17.3346L25.979 17.4791C25.979 24.52 20.2698 29.5208 13.229 29.5208C9.84749 29.5208 6.60448 28.1775 4.21339 25.7864C1.8223 23.3953 0.479004 20.1523 0.479004 16.7708C0.479004 9.72996 5.47984 4.02079 12.5207 4.02079ZM11.4582 6.19821L11.1621 6.23221C5.93459 6.89804 2.604 11.3634 2.604 16.7708C2.604 19.5887 3.72342 22.2912 5.71599 24.2838C7.70857 26.2764 10.4111 27.3958 13.229 27.3958C18.6364 27.3958 23.1003 24.0638 23.769 18.8377L23.8002 18.5416H12.5207C12.2639 18.5416 12.0159 18.4486 11.8224 18.2799C11.6289 18.1111 11.503 17.878 11.4681 17.6236L11.4582 17.4791V6.19821ZM16.7707 0.479126C20.1522 0.479126 23.3952 1.82243 25.7863 4.21351C28.1774 6.6046 29.5207 9.84762 29.5207 13.2291C29.5207 13.5109 29.4087 13.7812 29.2095 13.9804C29.0102 14.1797 28.74 14.2916 28.4582 14.2916H16.7707C16.4889 14.2916 16.2186 14.1797 16.0194 13.9804C15.8201 13.7812 15.7082 13.5109 15.7082 13.2291V1.54163C15.7082 1.25983 15.8201 0.989582 16.0194 0.790325C16.2186 0.591068 16.4889 0.479126 16.7707 0.479126ZM17.8332 2.65654V12.1666H27.3418L27.3093 11.8705C27.0081 9.54124 25.9441 7.37723 24.2833 5.71646C22.6226 4.05569 20.4586 2.99166 18.1293 2.69054L17.8332 2.65654Z" fill="#F26622"/>
</svg>
