<svg width="24" height="19" viewBox="0 0 24 19" fill="none" xmlns="http://www.w3.org/2000/svg">
<path d="M1.875 10.0551H0.75V7.05509H1.875H2.625V6.30509V6.15509C2.625 5.85672 2.74353 5.57057 2.9545 5.35959C3.16548 5.14861 3.45163 5.03009 3.75 5.03009H9.67493C9.67495 5.03009 9.67498 5.03009 9.675 5.03009C10.007 5.03011 10.3358 4.96607 10.6434 4.8415L19.8948 1.19792L19.9048 1.194L19.9146 1.1898C20.0841 1.11741 20.2687 1.08776 20.4523 1.10345C20.5762 1.11404 20.697 1.14503 20.81 1.1948L20.0476 1.49826L10.7807 5.18706C10.7802 5.18725 10.7797 5.18744 10.7792 5.18762C10.6395 5.24243 10.4954 5.28523 10.3484 5.31556L9.75 5.43903V6.05009V11.0001V11.5544L10.2799 11.7171C10.4293 11.7629 10.5745 11.8218 10.7137 11.8929L10.745 11.9089L10.7776 11.9219L20.0476 15.6119L20.8175 15.9184C20.6627 15.9946 20.4926 16.0364 20.3188 16.0401C20.1747 16.0394 20.0319 16.0117 19.8979 15.9585C19.8977 15.9584 19.8975 15.9583 19.8973 15.9582L10.7783 12.3137L9.75 11.9027V13.0101V16.8051C9.75001 17.1019 9.63272 17.3867 9.42368 17.5974C9.21528 17.8075 8.93253 17.927 8.6367 17.9301H7.69778C7.48413 17.9282 7.27528 17.8664 7.09506 17.7516C6.91437 17.6364 6.76978 17.4727 6.67787 17.2792C6.6778 17.279 6.67772 17.2788 6.67764 17.2787L4.42832 12.5101L4.22541 12.08L3.74979 12.0801C3.45604 12.0802 3.1739 11.9654 2.96368 11.7602C2.75534 11.5568 2.63401 11.2807 2.625 10.9899V10.8051V10.0551H1.875ZM21.075 2.19509V1.36498C21.173 1.4526 21.2551 1.55698 21.3174 1.67361C21.4034 1.83473 21.4489 2.01436 21.45 2.19698V14.9479C21.4435 15.1232 21.3961 15.2945 21.3115 15.4483C21.2499 15.5603 21.1698 15.6607 21.075 15.7454V14.9151V2.19509ZM22.995 9.39361V7.71656C23.0105 7.73044 23.0257 7.74479 23.0405 7.75959C23.2515 7.97057 23.37 8.25672 23.37 8.55509C23.37 8.85346 23.2515 9.1396 23.0405 9.35058C23.0257 9.36538 23.0105 9.37973 22.995 9.39361ZM9.375 6.15509V5.40509H8.625H3.75H3V6.15509V11.0001V11.7501H3.75H8.625H9.375V11.0001V6.15509ZM8.625 17.5551H9.375V16.8051V12.8301V12.0801H8.625H5.835H4.66004L5.15471 13.1458L6.99971 17.1208L7.20126 17.5551H7.68H8.625Z" fill="#FEFEFE" stroke="#FEFEFE" stroke-width="1.5"/>
</svg>
