<svg width="28" height="28" viewBox="0 0 28 28" fill="none" xmlns="http://www.w3.org/2000/svg">
<path d="M13.9999 16.55C14.6762 16.55 15.3248 16.2814 15.803 15.8031C16.2812 15.3249 16.5499 14.6763 16.5499 14C16.5499 13.3237 16.2812 12.6751 15.803 12.1969C15.3248 11.7187 14.6762 11.45 13.9999 11.45C13.3236 11.45 12.675 11.7187 12.1968 12.1969C11.7186 12.6751 11.4499 13.3237 11.4499 14C11.4499 14.6763 11.7186 15.3249 12.1968 15.8031C12.675 16.2814 13.3236 16.55 13.9999 16.55ZM5.4999 14C5.4999 11.7457 6.39544 9.58368 7.98949 7.98962C9.58355 6.39556 11.7456 5.50002 13.9999 5.50002C16.2542 5.50002 18.4163 6.39556 20.0103 7.98962C21.6044 9.58368 22.4999 11.7457 22.4999 14C22.4999 16.2544 21.6044 18.4164 20.0103 20.0104C18.4163 21.6045 16.2542 22.5 13.9999 22.5C11.7456 22.5 9.58355 21.6045 7.98949 20.0104C6.39544 18.4164 5.4999 16.2544 5.4999 14ZM13.9999 7.20002C12.1964 7.20002 10.4668 7.91645 9.19158 9.1917C7.91633 10.4669 7.1999 12.1966 7.1999 14C7.1999 15.8035 7.91633 17.5331 9.19158 18.8084C10.4668 20.0836 12.1964 20.8 13.9999 20.8C15.8034 20.8 17.533 20.0836 18.8082 18.8084C20.0835 17.5331 20.7999 15.8035 20.7999 14C20.7999 12.1966 20.0835 10.4669 18.8082 9.1917C17.533 7.91645 15.8034 7.20002 13.9999 7.20002ZM0.399902 14C0.399902 10.3931 1.83276 6.93387 4.38325 4.38337C6.93375 1.83288 10.393 0.400024 13.9999 0.400024C17.6068 0.400024 21.0661 1.83288 23.6166 4.38337C26.1671 6.93387 27.5999 10.3931 27.5999 14C27.5999 17.607 26.1671 21.0662 23.6166 23.6167C21.0661 26.1672 17.6068 27.6 13.9999 27.6C10.393 27.6 6.93375 26.1672 4.38325 23.6167C1.83276 21.0662 0.399902 17.607 0.399902 14ZM13.9999 2.10002C12.4372 2.10002 10.8897 2.40783 9.44597 3.00586C8.0022 3.60389 6.69035 4.48044 5.58533 5.58545C4.48031 6.69047 3.60377 8.00232 3.00574 9.44609C2.4077 10.8899 2.0999 12.4373 2.0999 14C2.0999 15.5628 2.4077 17.1102 3.00574 18.554C3.60377 19.9977 4.48031 21.3096 5.58533 22.4146C6.69035 23.5196 8.0022 24.3962 9.44597 24.9942C10.8897 25.5922 12.4372 25.9 13.9999 25.9C17.156 25.9 20.1828 24.6463 22.4145 22.4146C24.6462 20.1829 25.8999 17.1561 25.8999 14C25.8999 10.8439 24.6462 7.81714 22.4145 5.58545C20.1828 3.35377 17.156 2.10002 13.9999 2.10002Z" fill="#F26622"/>
</svg>
