<svg width="31" height="29" viewBox="0 0 31 29" fill="none" xmlns="http://www.w3.org/2000/svg">
<path d="M2.95851 14.4167C2.95551 11.4 4.0849 8.49212 6.12322 6.26829C8.16154 4.04446 10.9603 2.66668 13.9658 2.40756C16.9713 2.14843 19.9646 3.02683 22.3535 4.86896C24.7423 6.7111 26.3528 9.38277 26.8662 12.3554C27.4583 12.7315 27.964 13.2288 28.3498 13.8146C28.7357 14.4005 28.9929 15.0615 29.1045 15.754C29.147 15.3134 29.1668 14.8672 29.1668 14.4167C29.1668 6.59242 22.8244 0.25 15.0002 0.25C7.17592 0.25 0.833506 6.59242 0.833506 14.4167C0.831293 16.2754 1.19593 18.1162 1.90651 19.8337C2.61709 21.5512 3.65965 23.1116 4.97442 24.4254C5.17472 24.6191 5.44306 24.7263 5.72165 24.724C6.00023 24.7217 6.26678 24.6101 6.46387 24.4132C6.66096 24.2163 6.77282 23.9498 6.77537 23.6713C6.77793 23.3927 6.67096 23.1242 6.47751 22.9237C5.35986 21.8072 4.47367 20.4809 3.8698 19.0211C3.26592 17.5612 2.95623 15.9965 2.95851 14.4167ZM23.7693 11.6032C23.3429 10.2768 22.621 9.06453 21.6581 8.05761C20.6952 7.05068 19.5164 6.27538 18.2104 5.7901C16.9045 5.30481 15.5054 5.12219 14.1186 5.256C12.7318 5.38981 11.3935 5.83655 10.2044 6.56257C9.0153 7.2886 8.00645 8.27498 7.25384 9.44743C6.50122 10.6199 6.02446 11.9478 5.85946 13.3312C5.69446 14.7146 5.84553 16.1175 6.30129 17.434C6.75704 18.7506 7.5056 19.9466 8.49059 20.9319C8.58938 21.0306 8.70663 21.1089 8.83567 21.1623C8.96471 21.2156 9.10299 21.2431 9.24263 21.243C9.38227 21.2429 9.52053 21.2154 9.64952 21.1619C9.7785 21.1084 9.89569 21.03 9.99438 20.9312C10.0931 20.8324 10.1713 20.7152 10.2247 20.5861C10.2781 20.4571 10.3055 20.3188 10.3055 20.1792C10.3054 20.0395 10.2778 19.9013 10.2243 19.7723C10.1708 19.6433 10.0925 19.5261 9.99367 19.4274C9.2362 18.6699 8.6604 17.7505 8.30962 16.7383C7.95883 15.7261 7.8422 14.6475 7.96849 13.5838C8.09478 12.52 8.46071 11.4987 9.03873 10.5968C9.61676 9.69486 10.3918 8.9358 11.3056 8.37671C12.2194 7.81762 13.2481 7.47307 14.3143 7.369C15.3804 7.26492 16.4563 7.40403 17.461 7.77585C18.4656 8.14767 19.3729 8.74252 20.1144 9.51563C20.8559 10.2887 21.4125 11.22 21.7421 12.2393C22.3638 11.8816 23.0562 11.664 23.7708 11.6017M11.4585 14.4167C11.4585 13.4774 11.8316 12.5765 12.4958 11.9123C13.16 11.2481 14.0609 10.875 15.0002 10.875C15.9395 10.875 16.8403 11.2481 17.5045 11.9123C18.1687 12.5765 18.5418 13.4774 18.5418 14.4167C18.5418 15.356 18.1687 16.2568 17.5045 16.921C16.8403 17.5852 15.9395 17.9583 15.0002 17.9583C14.0609 17.9583 13.16 17.5852 12.4958 16.921C11.8316 16.2568 11.4585 15.356 11.4585 14.4167ZM15.0002 13C14.6244 13 14.2641 13.1493 13.9984 13.4149C13.7328 13.6806 13.5835 14.0409 13.5835 14.4167C13.5835 14.7924 13.7328 15.1527 13.9984 15.4184C14.2641 15.6841 14.6244 15.8333 15.0002 15.8333C15.3759 15.8333 15.7362 15.6841 16.0019 15.4184C16.2676 15.1527 16.4168 14.7924 16.4168 14.4167C16.4168 14.0409 16.2676 13.6806 16.0019 13.4149C15.7362 13.1493 15.3759 13 15.0002 13ZM27.7502 16.5417C27.7502 17.481 27.377 18.3818 26.7128 19.046C26.0487 19.7102 25.1478 20.0833 24.2085 20.0833C23.2692 20.0833 22.3684 19.7102 21.7042 19.046C21.04 18.3818 20.6668 17.481 20.6668 16.5417C20.6668 15.6024 21.04 14.7015 21.7042 14.0373C22.3684 13.3731 23.2692 13 24.2085 13C25.1478 13 26.0487 13.3731 26.7128 14.0373C27.377 14.7015 27.7502 15.6024 27.7502 16.5417ZM30.5835 24.1562C30.5835 26.3606 28.7617 28.5833 24.2085 28.5833C19.6553 28.5833 17.8335 26.3691 17.8335 24.1562V24.0103C17.8335 22.622 18.9583 21.5 20.3453 21.5H28.0718C29.4601 21.5 30.5835 22.6234 30.5835 24.0103V24.1562Z" fill="#F26622"/>
</svg>
