<svg width="148" height="40" viewBox="0 0 148 40" fill="none" xmlns="http://www.w3.org/2000/svg">
<g clip-path="url(#clip0_94_4764)">
<path d="M86.1367 11.1642L94.6508 7.90892L86.1367 4.56061V0.00320435L100.719 6.04875V9.76908L86.1367 15.8146V11.1642Z" fill="#86827E"/>
<path d="M5.61567 39.9968C2.53611 39.9968 0 38.4157 0 34.8813V34.6953C0 30.4169 3.62301 28.9288 8.0612 28.9288H10.1444V28.0917C10.1444 26.3246 9.41983 25.3015 7.60832 25.3015C5.97797 25.3015 5.16279 26.2316 5.07222 27.5337H0.543452C0.905753 23.6273 3.89474 21.7672 7.88005 21.7672C11.9559 21.7672 14.9449 23.5343 14.9449 27.9057V39.6248H10.3256V37.5786C9.41983 38.8807 7.88005 39.9968 5.61567 39.9968ZM10.1444 33.8582V32.1841H8.24235C5.88739 32.1841 4.70991 32.8351 4.70991 34.4163V34.6023C4.70991 35.8114 5.43452 36.6485 7.06487 36.6485C8.69523 36.5555 10.1444 35.6254 10.1444 33.8582ZM25.7234 39.9968C21.0135 39.9968 17.5716 37.0205 17.5716 31.068V30.789C17.5716 24.8364 21.1946 21.6741 25.7234 21.6741C29.6181 21.6741 32.7882 23.7203 33.1505 28.2777H28.6218C28.3501 26.6036 27.4443 25.4875 25.814 25.4875C23.8213 25.4875 22.3721 27.1616 22.3721 30.6029V31.161C22.3721 34.6953 23.6401 36.2765 25.814 36.2765C27.4443 36.2765 28.6218 35.0673 28.8935 33.1142H33.2411C32.9694 37.2065 30.3427 39.9968 25.7234 39.9968ZM43.4761 39.9968C38.7662 39.9968 35.3244 37.0205 35.3244 31.068V30.789C35.3244 24.8364 38.9474 21.6741 43.4761 21.6741C47.3709 21.6741 50.541 23.7203 50.9033 28.2777H46.3745C46.1028 26.6036 45.1971 25.4875 43.5667 25.4875C41.574 25.4875 40.1248 27.1616 40.1248 30.6029V31.161C40.1248 34.6953 41.3929 36.2765 43.5667 36.2765C45.1971 36.2765 46.3745 35.0673 46.6463 33.1142H50.9939C50.7222 37.2065 48.0955 39.9968 43.4761 39.9968ZM61.3195 39.9968C56.4284 39.9968 53.0771 37.0205 53.0771 31.161V30.789C53.0771 24.9294 56.6095 21.6741 61.2289 21.6741C65.4859 21.6741 69.0184 24.0924 69.0184 29.9519V32.0911H57.8776C58.0588 35.2534 59.4174 36.4625 61.41 36.4625C63.2215 36.4625 64.2179 35.4394 64.5802 34.2303H69.0184C68.4749 37.4856 65.7576 39.9968 61.3195 39.9968ZM57.9682 28.8358H64.3084C64.2179 26.2316 63.0404 25.1155 61.1383 25.1155C59.6891 25.2085 58.3305 26.0455 57.9682 28.8358ZM71.9168 22.1392H76.7173V24.7434C77.5324 23.0693 79.2534 21.7672 81.8801 21.7672C84.9596 21.7672 87.0428 23.7203 87.0428 27.9057V39.6248H82.2423V28.6498C82.2423 26.6036 81.4272 25.6735 79.7062 25.6735C78.0759 25.6735 76.7173 26.6966 76.7173 28.9288V39.6248H71.9168V22.1392ZM95.8286 16.8377V22.1392H99.0893V25.7665H95.8286V34.0443C95.8286 35.3464 96.3721 35.9974 97.5496 35.9974C98.2742 35.9974 98.727 35.9044 99.1799 35.7184V39.5318C98.6365 39.7178 97.6401 39.9038 96.4627 39.9038C92.7491 39.9038 91.0281 38.1366 91.0281 34.6023V25.7665H89.0355V22.1392H91.0281V18.8839L95.8286 16.8377ZM117.023 39.6248H112.313V37.0205C111.498 38.6947 109.868 39.9968 107.332 39.9968C104.252 39.9968 101.988 38.0436 101.988 33.9513V22.1392H106.788V33.3002C106.788 35.3464 107.603 36.2765 109.234 36.2765C110.864 36.2765 112.223 35.1604 112.223 33.0212V22.1392H117.023V39.6248ZM120.556 22.1392H125.356V25.3945C126.353 23.0693 127.983 21.9532 130.519 21.9532V26.7896C127.258 26.7896 125.356 27.8127 125.356 30.696V39.7178H120.556V22.1392ZM140.211 39.9968C135.319 39.9968 131.968 37.0205 131.968 31.161V30.789C131.968 24.9294 135.501 21.6741 140.12 21.6741C144.377 21.6741 147.909 24.0924 147.909 29.9519V32.0911H136.859C137.04 35.2534 138.399 36.4625 140.392 36.4625C142.203 36.4625 143.2 35.4394 143.562 34.2303H148C147.275 37.4856 144.649 39.9968 140.211 39.9968ZM136.769 28.8358H143.2C143.109 26.2316 141.931 25.1155 140.029 25.1155C138.58 25.2085 137.222 26.0455 136.769 28.8358Z" fill="#86827E"/>
</g>
<defs>
<clipPath id="clip0_94_4764">
<rect width="148" height="40" fill="white"/>
</clipPath>
</defs>
</svg>
