<svg width="129" height="64" viewBox="0 0 129 64" fill="none" xmlns="http://www.w3.org/2000/svg">
<path d="M57.3384 16.967L63.3734 21.0824L50.4527 29.3762C51.1079 29.8762 51.8551 30.2958 52.5103 30.7901L65.5115 22.5423L71.1672 26.3357L58.3155 34.756C58.8902 35.3308 59.7351 35.6469 60.4421 36.1067L73.6157 27.7496V18.6224H83.2545V36.8136L91.8012 36.8711V45.4179H73.6732V36.7964L57.4763 47.1422L40.8944 36.0262C39.2735 41.1589 35.4341 45.0155 29.0657 45.4753C25.0424 45.7627 20.5879 45.2627 16.0186 45.4753V18.6741C21.7317 19.0534 28.0081 17.9097 32.5373 19.3178C36.5434 20.5593 39.4345 23.755 40.6989 27.7381L57.3441 17.0705L57.3384 16.967ZM25.1516 27.1863V36.8251C27.4506 36.8366 29.1922 36.9688 30.5543 35.9228C32.566 34.3709 32.9799 30.52 31.1981 28.4681C30.0083 27.1001 28.0024 26.8128 25.2205 26.9909C25.1458 27.0024 25.1516 27.0944 25.1631 27.1863H25.1516ZM94.3647 18.5189H104.003V36.7734H112.487V45.3202H94.2957V18.7086C94.29 18.6166 94.2842 18.5246 94.3532 18.5132L94.3647 18.5189Z" fill="#86827E"/>
</svg>
