<svg width="24" height="25" viewBox="0 0 24 25" fill="none" xmlns="http://www.w3.org/2000/svg">
<path d="M2.12613 11.7114L21.8404 2.74569M21.8404 2.74569L18.1547 1.35712M21.8404 2.74569L20.469 6.4314M22.7147 23.6428H18.429V11.6428C18.429 11.4155 18.5193 11.1975 18.68 11.0367C18.8408 10.876 19.0588 10.7857 19.2861 10.7857H21.8576C22.0849 10.7857 22.3029 10.876 22.4637 11.0367C22.6244 11.1975 22.7147 11.4155 22.7147 11.6428V23.6428ZM14.1433 23.6428H9.85756V14.2143C9.85756 13.9869 9.94787 13.7689 10.1086 13.6082C10.2694 13.4474 10.4874 13.3571 10.7147 13.3571H13.2861C13.5135 13.3571 13.7315 13.4474 13.8922 13.6082C14.053 13.7689 14.1433 13.9869 14.1433 14.2143V23.6428ZM5.57185 23.6428H1.28613V16.7857C1.28613 16.5584 1.37644 16.3403 1.53718 16.1796C1.69793 16.0189 1.91595 15.9285 2.14328 15.9285H4.7147C4.94203 15.9285 5.16005 16.0189 5.3208 16.1796C5.48154 16.3403 5.57185 16.5584 5.57185 16.7857V23.6428Z" stroke="#494543" stroke-width="1.71429" stroke-linecap="round" stroke-linejoin="round"/>
<path d="M2.12613 11.7114L21.8404 2.74569M21.8404 2.74569L18.1547 1.35712M21.8404 2.74569L20.469 6.4314M22.7147 23.6428H18.429V11.6428C18.429 11.4155 18.5193 11.1975 18.68 11.0367C18.8408 10.876 19.0588 10.7857 19.2861 10.7857H21.8576C22.0849 10.7857 22.3029 10.876 22.4637 11.0367C22.6244 11.1975 22.7147 11.4155 22.7147 11.6428V23.6428ZM14.1433 23.6428H9.85756V14.2143C9.85756 13.9869 9.94787 13.7689 10.1086 13.6082C10.2694 13.4474 10.4874 13.3571 10.7147 13.3571H13.2861C13.5135 13.3571 13.7315 13.4474 13.8922 13.6082C14.053 13.7689 14.1433 13.9869 14.1433 14.2143V23.6428ZM5.57185 23.6428H1.28613V16.7857C1.28613 16.5584 1.37644 16.3403 1.53718 16.1796C1.69793 16.0189 1.91595 15.9285 2.14328 15.9285H4.7147C4.94203 15.9285 5.16005 16.0189 5.3208 16.1796C5.48154 16.3403 5.57185 16.5584 5.57185 16.7857V23.6428Z" stroke="black" stroke-opacity="0.2" stroke-width="1.71429" stroke-linecap="round" stroke-linejoin="round"/>
</svg>
