<svg width="22" height="19" viewBox="0 0 22 19" fill="none" xmlns="http://www.w3.org/2000/svg">
<path d="M18.9431 9.85405L19.2977 9.50049L18.9436 9.14645L15.5001 5.70289V4.28711L20.7127 9.49973L15.5001 14.7042V13.2875L18.9431 9.85405ZM3.05702 9.85405L6.50008 13.2875V14.7042L1.28746 9.49972L6.50008 4.28711V5.70289L3.05652 9.14645L2.70248 9.50049L3.05702 9.85405ZM8.74393 17.7109L12.2761 1.08908L13.2562 1.28911L9.72409 17.9109L8.74393 17.7109Z" fill="black"/>
<path d="M18.9431 9.85405L19.2977 9.50049L18.9436 9.14645L15.5001 5.70289V4.28711L20.7127 9.49973L15.5001 14.7042V13.2875L18.9431 9.85405ZM3.05702 9.85405L6.50008 13.2875V14.7042L1.28746 9.49972L6.50008 4.28711V5.70289L3.05652 9.14645L2.70248 9.50049L3.05702 9.85405ZM8.74393 17.7109L12.2761 1.08908L13.2562 1.28911L9.72409 17.9109L8.74393 17.7109Z" stroke="#494543"/>
<path d="M18.9431 9.85405L19.2977 9.50049L18.9436 9.14645L15.5001 5.70289V4.28711L20.7127 9.49973L15.5001 14.7042V13.2875L18.9431 9.85405ZM3.05702 9.85405L6.50008 13.2875V14.7042L1.28746 9.49972L6.50008 4.28711V5.70289L3.05652 9.14645L2.70248 9.50049L3.05702 9.85405ZM8.74393 17.7109L12.2761 1.08908L13.2562 1.28911L9.72409 17.9109L8.74393 17.7109Z" stroke="black" stroke-opacity="0.2"/>
</svg>
