<svg width="112" height="68" viewBox="0 0 112 68" fill="none" xmlns="http://www.w3.org/2000/svg">
<path d="M37.8557 40.8563C34.9437 44.1773 29.3011 42.3951 29.3011 37.9195V27.9209H25.4707V37.9195C25.4707 42.8127 29.0121 45.926 33.5347 45.926C34.7286 45.926 36.8947 45.4793 38.0147 43.6927L38.5053 45.6491H41.6637V27.9209H37.8557V40.8563Z" fill="#86827E"/>
<path d="M69.2317 27.606C63.9027 27.606 59.9424 31.626 59.9424 36.8006C59.9424 41.9373 63.9027 46.031 69.2317 46.031C74.5965 46.031 78.4896 41.9395 78.4896 36.8006C78.4896 31.626 74.592 27.606 69.2317 27.606ZM69.2317 42.605C66.6041 42.605 63.7638 40.7156 63.7638 36.7984C63.7638 32.8811 66.6041 31.0654 69.2317 31.0654C71.9331 31.0654 74.6681 32.8833 74.6681 36.7984C74.6681 40.7134 71.9331 42.605 69.2317 42.605Z" fill="#86827E"/>
<path d="M95.0411 40.0523V31.1369H98.3719V27.9209H95.0411V22.9919L91.3585 23.4118V27.9209H85.1201V26.5809C85.1201 25.3235 85.8571 24.3096 87.4699 24.2381C87.9297 24.2212 88.3896 24.2685 88.8363 24.3788V21.174C88.2808 21.0778 87.7178 21.0307 87.154 21.0333C83.5431 20.9998 81.2987 23.0611 81.2987 26.592V27.932H78.7607V31.148H81.2964V45.6647H85.1201V31.148H91.3607V40.1685C91.3607 44.4319 94.3063 46.1114 98.4459 45.6915V42.3594C95.9191 42.8127 95.0411 41.4861 95.0411 40.0523Z" fill="#86827E"/>
<path d="M47.282 27.9209H47.2798H42.8289L48.7896 36.7649L42.7236 45.6446H46.8139L52.8798 36.7671L47.2776 27.9209H47.282Z" fill="#86827E"/>
<path d="M60.0454 27.9209H55.9081L53.583 31.4317L55.5609 34.5717L60.0454 27.9209Z" fill="#86827E"/>
<path d="M55.5433 38.9334L53.4668 41.944L55.942 45.6446H60.1151L55.55 38.9245L55.5433 38.9334Z" fill="#86827E"/>
<path d="M20.0276 42.1584C19.5926 42.1584 19.1753 41.9862 18.8674 41.6797C18.5596 41.3732 18.3863 40.9574 18.3857 40.5236V23.4118L14.5352 22.9919V40.9434C14.5352 41.562 14.6575 42.1746 14.8953 42.7459C15.1331 43.3173 15.4816 43.8363 15.9208 44.2732C16.3601 44.7101 16.8814 45.0563 17.4551 45.292C18.0287 45.5277 18.6434 45.6483 19.2638 45.6468H24.9265V42.1584H20.0276Z" fill="#86827E"/>
</svg>
