<svg width="18" height="18" viewBox="0 0 18 18" fill="none" xmlns="http://www.w3.org/2000/svg">
<path d="M16.5 10.2475H10.25V16.4975C10.25 16.829 10.1183 17.147 9.88388 17.3814C9.64946 17.6158 9.33152 17.7475 9 17.7475C8.66848 17.7475 8.35054 17.6158 8.11612 17.3814C7.88169 17.147 7.75 16.829 7.75 16.4975V10.2475H1.5C1.16848 10.2475 0.850537 10.1158 0.616117 9.88138C0.381696 9.64696 0.25 9.32902 0.25 8.9975C0.25 8.66598 0.381696 8.34803 0.616117 8.11361C0.850537 7.87919 1.16848 7.7475 1.5 7.7475H7.75V1.4975C7.75 1.16598 7.88169 0.848034 8.11612 0.613614C8.35054 0.379193 8.66848 0.247498 9 0.247498C9.33152 0.247498 9.64946 0.379193 9.88388 0.613614C10.1183 0.848034 10.25 1.16598 10.25 1.4975V7.7475H16.5C16.8315 7.7475 17.1495 7.87919 17.3839 8.11361C17.6183 8.34803 17.75 8.66598 17.75 8.9975C17.75 9.32902 17.6183 9.64696 17.3839 9.88138C17.1495 10.1158 16.8315 10.2475 16.5 10.2475Z" fill="#F26622"/>
</svg>
