<svg width="22" height="22" viewBox="0 0 22 22" fill="none" xmlns="http://www.w3.org/2000/svg">
<path d="M20.7097 7.71005C21.9597 6.46005 21.3897 5.00005 20.7097 4.29005L17.7097 1.29005C16.4497 0.0400511 14.9997 0.610051 14.2897 1.29005L12.5897 3.00005H9.99969C8.09969 3.00005 6.99968 4.00005 6.43968 5.15005L1.99968 9.59005V13.5901L1.28968 14.2901C0.0396849 15.5501 0.609685 17.0001 1.28968 17.7101L4.28968 20.7101C4.82968 21.2501 5.40968 21.4501 5.95968 21.4501C6.66968 21.4501 7.31968 21.1 7.70968 20.7101L10.4097 18.0001H13.9997C15.6997 18.0001 16.5597 16.9401 16.8697 15.9001C17.9997 15.6001 18.6197 14.7401 18.8697 13.9001C20.4197 13.5001 20.9997 12.0301 20.9997 11.0001V8.00005H20.4097L20.7097 7.71005ZM18.9997 11.0001C18.9997 11.4501 18.8097 12.0001 17.9997 12.0001H16.9997V13.0001C16.9997 13.4501 16.8097 14.0001 15.9997 14.0001H14.9997V15.0001C14.9997 15.4501 14.8097 16.0001 13.9997 16.0001H9.58969L6.30968 19.2801C5.99968 19.5701 5.81968 19.4001 5.70968 19.2901L2.71968 16.3101C2.42968 16.0001 2.59968 15.8201 2.70968 15.7101L3.99968 14.4101V10.4101L5.99968 8.41005V10.0001C5.99968 11.2101 6.79969 13.0001 8.99969 13.0001C11.1997 13.0001 11.9997 11.2101 11.9997 10.0001H18.9997V11.0001ZM19.2897 6.29005L17.5897 8.00005H9.99969V10.0001C9.99969 10.4501 9.80969 11.0001 8.99969 11.0001C8.18969 11.0001 7.99968 10.4501 7.99968 10.0001V7.00005C7.99968 6.54005 8.16969 5.00005 9.99969 5.00005H13.4097L15.6897 2.72005C15.9997 2.43005 16.1797 2.60005 16.2897 2.71005L19.2797 5.69005C19.5697 6.00005 19.3997 6.18005 19.2897 6.29005Z" fill="#F26622"/>
</svg>
