<svg width="24" height="19" viewBox="0 0 24 19" fill="none" xmlns="http://www.w3.org/2000/svg">
<path d="M1.875 10.055H0.75V7.05503H1.875H2.625V6.30503V6.15503C2.625 5.85666 2.74353 5.57051 2.9545 5.35953C3.16548 5.14855 3.45163 5.03003 3.75 5.03003H9.67493C9.67495 5.03003 9.67498 5.03003 9.675 5.03003C10.007 5.03005 10.3358 4.96601 10.6434 4.84143L19.8948 1.19785L19.9048 1.19394L19.9146 1.18974C20.0841 1.11735 20.2687 1.0877 20.4523 1.10339C20.5762 1.11398 20.697 1.14497 20.81 1.19474L20.0476 1.4982L10.7807 5.187C10.7802 5.18719 10.7797 5.18737 10.7792 5.18756C10.6395 5.24237 10.4954 5.28517 10.3484 5.3155L9.75 5.43897V6.05002V11V11.5543L10.2799 11.717C10.4293 11.7629 10.5745 11.8217 10.7137 11.8929L10.745 11.9089L10.7776 11.9218L20.0476 15.6118L20.8175 15.9183C20.6627 15.9945 20.4926 16.0363 20.3188 16.04C20.1747 16.0393 20.0319 16.0116 19.8979 15.9584C19.8977 15.9583 19.8975 15.9583 19.8973 15.9582L10.7783 12.3136L9.75 11.9026V13.01V16.805C9.75001 17.1019 9.63272 17.3867 9.42368 17.5974C9.21528 17.8075 8.93253 17.927 8.6367 17.93H7.69778C7.48413 17.9282 7.27528 17.8663 7.09506 17.7515C6.91437 17.6364 6.76978 17.4726 6.67787 17.2791C6.6778 17.2789 6.67772 17.2788 6.67764 17.2786L4.42832 12.5101L4.22541 12.0799L3.74979 12.08C3.45604 12.0801 3.1739 11.9653 2.96368 11.7601C2.75534 11.5568 2.63401 11.2807 2.625 10.9899V10.805V10.055H1.875ZM21.075 2.19503V1.36492C21.173 1.45254 21.2551 1.55692 21.3174 1.67355C21.4034 1.83466 21.4489 2.0143 21.45 2.19692V14.9479C21.4435 15.1231 21.3961 15.2945 21.3115 15.4482C21.2499 15.5603 21.1698 15.6606 21.075 15.7453V14.915V2.19503ZM22.995 9.39355V7.7165C23.0105 7.73038 23.0257 7.74473 23.0405 7.75953C23.2515 7.97051 23.37 8.25665 23.37 8.55503C23.37 8.8534 23.2515 9.13954 23.0405 9.35052C23.0257 9.36532 23.0105 9.37967 22.995 9.39355ZM9.375 6.15503V5.40503H8.625H3.75H3V6.15503V11V11.75H3.75H8.625H9.375V11V6.15503ZM8.625 17.555H9.375V16.805V12.83V12.08H8.625H5.835H4.66004L5.15471 13.1458L6.99971 17.1208L7.20126 17.555H7.68H8.625Z" fill="black"/>
<path d="M1.875 10.055H0.75V7.05503H1.875H2.625V6.30503V6.15503C2.625 5.85666 2.74353 5.57051 2.9545 5.35953C3.16548 5.14855 3.45163 5.03003 3.75 5.03003H9.67493C9.67495 5.03003 9.67498 5.03003 9.675 5.03003C10.007 5.03005 10.3358 4.96601 10.6434 4.84143L19.8948 1.19785L19.9048 1.19394L19.9146 1.18974C20.0841 1.11735 20.2687 1.0877 20.4523 1.10339C20.5762 1.11398 20.697 1.14497 20.81 1.19474L20.0476 1.4982L10.7807 5.187C10.7802 5.18719 10.7797 5.18737 10.7792 5.18756C10.6395 5.24237 10.4954 5.28517 10.3484 5.3155L9.75 5.43897V6.05002V11V11.5543L10.2799 11.717C10.4293 11.7629 10.5745 11.8217 10.7137 11.8929L10.745 11.9089L10.7776 11.9218L20.0476 15.6118L20.8175 15.9183C20.6627 15.9945 20.4926 16.0363 20.3188 16.04C20.1747 16.0393 20.0319 16.0116 19.8979 15.9584C19.8977 15.9583 19.8975 15.9583 19.8973 15.9582L10.7783 12.3136L9.75 11.9026V13.01V16.805C9.75001 17.1019 9.63272 17.3867 9.42368 17.5974C9.21528 17.8075 8.93253 17.927 8.6367 17.93H7.69778C7.48413 17.9282 7.27528 17.8663 7.09506 17.7515C6.91437 17.6364 6.76978 17.4726 6.67787 17.2791C6.6778 17.2789 6.67772 17.2788 6.67764 17.2786L4.42832 12.5101L4.22541 12.0799L3.74979 12.08C3.45604 12.0801 3.1739 11.9653 2.96368 11.7601C2.75534 11.5568 2.63401 11.2807 2.625 10.9899V10.805V10.055H1.875ZM21.075 2.19503V1.36492C21.173 1.45254 21.2551 1.55692 21.3174 1.67355C21.4034 1.83466 21.4489 2.0143 21.45 2.19692V14.9479C21.4435 15.1231 21.3961 15.2945 21.3115 15.4482C21.2499 15.5603 21.1698 15.6606 21.075 15.7453V14.915V2.19503ZM22.995 9.39355V7.7165C23.0105 7.73038 23.0257 7.74473 23.0405 7.75953C23.2515 7.97051 23.37 8.25665 23.37 8.55503C23.37 8.8534 23.2515 9.13954 23.0405 9.35052C23.0257 9.36532 23.0105 9.37967 22.995 9.39355ZM9.375 6.15503V5.40503H8.625H3.75H3V6.15503V11V11.75H3.75H8.625H9.375V11V6.15503ZM8.625 17.555H9.375V16.805V12.83V12.08H8.625H5.835H4.66004L5.15471 13.1458L6.99971 17.1208L7.20126 17.555H7.68H8.625Z" stroke="#494543" stroke-width="1.5"/>
<path d="M1.875 10.055H0.75V7.05503H1.875H2.625V6.30503V6.15503C2.625 5.85666 2.74353 5.57051 2.9545 5.35953C3.16548 5.14855 3.45163 5.03003 3.75 5.03003H9.67493C9.67495 5.03003 9.67498 5.03003 9.675 5.03003C10.007 5.03005 10.3358 4.96601 10.6434 4.84143L19.8948 1.19785L19.9048 1.19394L19.9146 1.18974C20.0841 1.11735 20.2687 1.0877 20.4523 1.10339C20.5762 1.11398 20.697 1.14497 20.81 1.19474L20.0476 1.4982L10.7807 5.187C10.7802 5.18719 10.7797 5.18737 10.7792 5.18756C10.6395 5.24237 10.4954 5.28517 10.3484 5.3155L9.75 5.43897V6.05002V11V11.5543L10.2799 11.717C10.4293 11.7629 10.5745 11.8217 10.7137 11.8929L10.745 11.9089L10.7776 11.9218L20.0476 15.6118L20.8175 15.9183C20.6627 15.9945 20.4926 16.0363 20.3188 16.04C20.1747 16.0393 20.0319 16.0116 19.8979 15.9584C19.8977 15.9583 19.8975 15.9583 19.8973 15.9582L10.7783 12.3136L9.75 11.9026V13.01V16.805C9.75001 17.1019 9.63272 17.3867 9.42368 17.5974C9.21528 17.8075 8.93253 17.927 8.6367 17.93H7.69778C7.48413 17.9282 7.27528 17.8663 7.09506 17.7515C6.91437 17.6364 6.76978 17.4726 6.67787 17.2791C6.6778 17.2789 6.67772 17.2788 6.67764 17.2786L4.42832 12.5101L4.22541 12.0799L3.74979 12.08C3.45604 12.0801 3.1739 11.9653 2.96368 11.7601C2.75534 11.5568 2.63401 11.2807 2.625 10.9899V10.805V10.055H1.875ZM21.075 2.19503V1.36492C21.173 1.45254 21.2551 1.55692 21.3174 1.67355C21.4034 1.83466 21.4489 2.0143 21.45 2.19692V14.9479C21.4435 15.1231 21.3961 15.2945 21.3115 15.4482C21.2499 15.5603 21.1698 15.6606 21.075 15.7453V14.915V2.19503ZM22.995 9.39355V7.7165C23.0105 7.73038 23.0257 7.74473 23.0405 7.75953C23.2515 7.97051 23.37 8.25665 23.37 8.55503C23.37 8.8534 23.2515 9.13954 23.0405 9.35052C23.0257 9.36532 23.0105 9.37967 22.995 9.39355ZM9.375 6.15503V5.40503H8.625H3.75H3V6.15503V11V11.75H3.75H8.625H9.375V11V6.15503ZM8.625 17.555H9.375V16.805V12.83V12.08H8.625H5.835H4.66004L5.15471 13.1458L6.99971 17.1208L7.20126 17.555H7.68H8.625Z" stroke="black" stroke-opacity="0.2" stroke-width="1.5"/>
</svg>
