<svg width="34" height="34" viewBox="0 0 34 34" fill="none" xmlns="http://www.w3.org/2000/svg">
<path d="M4.25 23.375V19.125H0V0H25.5V4.25H29.75V12.75H27.625V6.375H6.375V21.25H19.125V23.375H4.25ZM4.25 17V4.25H23.375V2.125H2.125V17H4.25ZM8.5 19.125V14.875H10.625V19.125H8.5ZM12.75 19.125V10.625H14.875V19.125H12.75ZM17 19.125V12.75H19.125V19.125H17ZM27.625 14.875C28.4993 14.875 29.3239 15.041 30.0986 15.373C30.8734 15.7051 31.5485 16.1589 32.124 16.7344C32.6995 17.3099 33.1589 17.9906 33.502 18.7764C33.8451 19.5622 34.0111 20.3867 34 21.25C34 22.1354 33.834 22.96 33.502 23.7236C33.1699 24.4873 32.7161 25.1624 32.1406 25.749C31.5651 26.3356 30.8844 26.7949 30.0986 27.127C29.3128 27.459 28.4883 27.625 27.625 27.625C26.9609 27.625 26.3135 27.5254 25.6826 27.3262C25.0518 27.127 24.4707 26.8337 23.9395 26.4463L16.6846 33.6846C16.4743 33.8949 16.2253 34 15.9375 34C15.6497 34 15.4007 33.8949 15.1904 33.6846C14.9801 33.4743 14.875 33.2253 14.875 32.9375C14.875 32.6497 14.9801 32.4007 15.1904 32.1904L22.4287 24.9355C22.0413 24.4043 21.748 23.8232 21.5488 23.1924C21.3496 22.5615 21.25 21.9141 21.25 21.25C21.25 20.3757 21.416 19.5511 21.748 18.7764C22.0801 18.0016 22.5339 17.3265 23.1094 16.751C23.6849 16.1755 24.36 15.7161 25.1348 15.373C25.9095 15.0299 26.7396 14.8639 27.625 14.875ZM27.625 25.5C28.2116 25.5 28.7594 25.3893 29.2686 25.168C29.7777 24.9466 30.2314 24.6423 30.6299 24.2549C31.0283 23.8675 31.3327 23.4193 31.543 22.9102C31.7533 22.401 31.8639 21.8477 31.875 21.25C31.875 20.6634 31.7643 20.1156 31.543 19.6064C31.3216 19.0973 31.0173 18.6436 30.6299 18.2451C30.2425 17.8467 29.7943 17.5423 29.2852 17.332C28.776 17.1217 28.2227 17.0111 27.625 17C27.0384 17 26.4906 17.1107 25.9814 17.332C25.4723 17.5534 25.0186 17.8577 24.6201 18.2451C24.2217 18.6325 23.9173 19.0807 23.707 19.5898C23.4967 20.099 23.3861 20.6523 23.375 21.25C23.375 21.8366 23.4857 22.3844 23.707 22.8936C23.9284 23.4027 24.2327 23.8564 24.6201 24.2549C25.0075 24.6533 25.4557 24.9577 25.9648 25.168C26.474 25.3783 27.0273 25.4889 27.625 25.5Z" fill="#F26622"/>
</svg>
