<svg width="30" height="19" viewBox="0 0 30 19" fill="none" xmlns="http://www.w3.org/2000/svg">
<path d="M28.6694 12.4286H28.6755H28.6634H28.6694ZM27.8134 11.7972C27.9348 12.1833 28.2845 12.4262 28.6694 12.4286C28.7544 12.4286 28.8479 12.4043 28.9426 12.3801C29.4162 12.2343 29.6834 11.7122 29.5255 11.2386C29.4891 11.1293 25.8462 0.285767 15.0002 0.285767C4.15421 0.285767 0.510137 11.1293 0.473708 11.2386C0.315851 11.7122 0.582994 12.2222 1.05657 12.3801C1.54228 12.5379 2.05228 12.2708 2.21014 11.7972L2.21378 11.7911C2.37528 11.3176 5.53728 2.1072 15.0124 2.1072C24.5348 2.1072 27.6798 11.3965 27.8134 11.7972ZM10.7502 12.4286C10.7502 11.3015 11.198 10.2204 11.995 9.42342C12.792 8.62639 13.873 8.17862 15.0002 8.17862C16.1274 8.17862 17.2084 8.62639 18.0054 9.42342C18.8024 10.2204 19.2502 11.3015 19.2502 12.4286C19.2502 13.5558 18.8024 14.6368 18.0054 15.4338C17.2084 16.2309 16.1274 16.6786 15.0002 16.6786C13.873 16.6786 12.792 16.2309 11.995 15.4338C11.198 14.6368 10.7502 13.5558 10.7502 12.4286ZM15.0002 6.3572C13.39 6.3572 11.8457 6.99686 10.7071 8.13548C9.56845 9.27409 8.92878 10.8184 8.92878 12.4286C8.92878 14.0389 9.56845 15.5832 10.7071 16.7218C11.8457 17.8604 13.39 18.5001 15.0002 18.5001C16.6105 18.5001 18.1547 17.8604 19.2934 16.7218C20.432 15.5832 21.0716 14.0389 21.0716 12.4286C21.0716 10.8184 20.432 9.27409 19.2934 8.13548C18.1547 6.99686 16.6105 6.3572 15.0002 6.3572Z" fill="#F26622"/>
</svg>
