<svg width="17" height="21" viewBox="0 0 17 21" fill="none" xmlns="http://www.w3.org/2000/svg">
<path d="M8.5 0C6.31273 0.00248131 4.21575 0.872472 2.66911 2.41911C1.12247 3.96575 0.252481 6.06273 0.25 8.25C0.25 15.3094 7.75 20.6409 8.06969 20.8641C8.19579 20.9524 8.34603 20.9998 8.5 20.9998C8.65397 20.9998 8.80421 20.9524 8.93031 20.8641C9.25 20.6409 16.75 15.3094 16.75 8.25C16.7475 6.06273 15.8775 3.96575 14.3309 2.41911C12.7843 0.872472 10.6873 0.00248131 8.5 0ZM8.5 5.25C9.09334 5.25 9.67336 5.42595 10.1667 5.75559C10.6601 6.08524 11.0446 6.55377 11.2716 7.10195C11.4987 7.65013 11.5581 8.25333 11.4424 8.83527C11.3266 9.41721 11.0409 9.95176 10.6213 10.3713C10.2018 10.7909 9.66721 11.0766 9.08527 11.1924C8.50333 11.3081 7.90013 11.2487 7.35195 11.0216C6.80377 10.7946 6.33524 10.4101 6.00559 9.91671C5.67595 9.42336 5.5 8.84334 5.5 8.25C5.5 7.45435 5.81607 6.69129 6.37868 6.12868C6.94129 5.56607 7.70435 5.25 8.5 5.25Z" fill="#F26622"/>
</svg>
