<svg width="26" height="30" viewBox="0 0 26 30" fill="none" xmlns="http://www.w3.org/2000/svg">
<path d="M4.27768 4.47134C6.59101 2.15801 9.72855 0.858398 13.0001 0.858398C16.2716 0.858398 19.4092 2.15801 21.7225 4.47134C24.0358 6.78467 25.3355 9.92222 25.3355 13.1938C25.3355 16.4653 24.0358 19.6028 21.7225 21.9162L20.0409 23.5793C18.8013 24.7948 17.1934 26.3588 15.2158 28.2713C14.6214 28.8461 13.8269 29.1673 13.0001 29.1673C12.1733 29.1673 11.3788 28.8461 10.7844 28.2713L5.83884 23.4603C5.21551 22.8498 4.69701 22.3355 4.27768 21.9162C3.13218 20.7708 2.22352 19.4109 1.60358 17.9143C0.983632 16.4177 0.664551 14.8137 0.664551 13.1938C0.664551 11.5738 0.983632 9.96978 1.60358 8.47319C2.22352 6.97659 3.13218 5.61676 4.27768 4.47134ZM20.2194 5.97301C19.2712 5.02486 18.1455 4.27276 16.9066 3.75967C15.6677 3.24657 14.3398 2.98251 12.9989 2.98258C11.6579 2.98264 10.3301 3.24683 9.09127 3.76005C7.85242 4.27327 6.72678 5.02547 5.77864 5.97372C4.83049 6.92196 4.07839 8.04767 3.56529 9.28657C3.05219 10.5255 2.78814 11.8533 2.7882 13.1943C2.78827 14.5352 3.05245 15.863 3.56568 17.1019C4.0789 18.3407 4.8311 19.4664 5.77934 20.4145L7.88734 22.4942C9.04618 23.6289 10.5053 25.0456 12.262 26.7442C12.4601 26.9355 12.7247 27.0424 13.0001 27.0424C13.2755 27.0424 13.5401 26.9355 13.7382 26.7442L18.5478 22.0692C19.2136 21.4161 19.7703 20.865 20.2194 20.4145C22.1341 18.4998 23.2097 15.9029 23.2097 13.1952C23.2097 10.4874 22.1341 7.89056 20.2194 5.97584M13.0001 9.33192C13.5586 9.33192 14.1116 9.44193 14.6276 9.65565C15.1436 9.86938 15.6124 10.1826 16.0073 10.5776C16.4022 10.9725 16.7155 11.4413 16.9292 11.9573C17.1429 12.4732 17.2529 13.0263 17.2529 13.5848C17.2529 14.1432 17.1429 14.6963 16.9292 15.2122C16.7155 15.7282 16.4022 16.1971 16.0073 16.592C15.6124 16.9869 15.1436 17.3001 14.6276 17.5139C14.1116 17.7276 13.5586 17.8376 13.0001 17.8376C11.8858 17.8173 10.824 17.3603 10.0432 16.5651C9.26235 15.7699 8.82488 14.6999 8.82488 13.5855C8.82488 12.471 9.26235 11.401 10.0432 10.6058C10.824 9.81061 11.8858 9.35368 13.0001 9.33334M13.0001 11.4583C12.4358 11.4583 11.8945 11.6825 11.4955 12.0816C11.0964 12.4806 10.8723 13.0218 10.8723 13.5862C10.8723 14.1505 11.0964 14.6917 11.4955 15.0908C11.8945 15.4898 12.4358 15.714 13.0001 15.714C13.5547 15.6997 14.0819 15.4693 14.4691 15.072C14.8563 14.6746 15.073 14.1417 15.073 13.5869C15.073 13.0321 14.8563 12.4992 14.4691 12.1018C14.0819 11.7045 13.5547 11.4741 13.0001 11.4598" fill="#F26622"/>
</svg>
