<svg width="18" height="19" viewBox="0 0 18 19" fill="none" xmlns="http://www.w3.org/2000/svg">
<path d="M16.23 12.76L13.69 12.47C13.3914 12.4349 13.0886 12.468 12.8046 12.5667C12.5206 12.6654 12.2626 12.8273 12.05 13.04L10.21 14.88C7.37123 13.4362 5.06382 11.1288 3.62004 8.29001L5.47004 6.44001C5.90004 6.01001 6.11004 5.41001 6.04004 4.80001L5.75004 2.28001C5.69335 1.79219 5.45923 1.34225 5.09228 1.01586C4.72532 0.68947 4.25115 0.509428 3.76004 0.510011H2.03004C0.900041 0.510011 -0.0399593 1.45001 0.0300407 2.58001C0.560041 11.12 7.39004 17.94 15.92 18.47C17.05 18.54 17.99 17.6 17.99 16.47V14.74C18 13.73 17.24 12.88 16.23 12.76Z" fill="#F26622"/>
</svg>
