<svg width="28" height="28" viewBox="0 0 28 28" fill="none" xmlns="http://www.w3.org/2000/svg">
<path d="M0.483201 12.4904C0.760478 10.0088 1.71555 7.65138 3.24375 5.67655C4.77194 3.70172 6.81428 2.18569 9.14694 1.2946C11.4796 0.403504 14.0125 0.171745 16.4682 0.624718C18.9238 1.07769 21.2074 2.19792 23.0686 3.86262C24.9298 5.52733 26.2968 7.67226 27.0198 10.0624C27.7429 12.4525 27.794 14.9955 27.1676 17.4127C26.5412 19.8299 25.2615 22.0281 23.4687 23.7662C21.6759 25.5044 19.4392 26.7155 17.0038 27.2668C17.3146 26.7773 17.4493 26.1964 17.3856 25.62C17.322 25.0437 17.0638 24.5062 16.6536 24.0963L16.6366 24.0793C16.9412 23.6275 17.2084 23.1517 17.4356 22.6564C17.8348 21.7852 18.1534 20.8793 18.3876 19.95H13.5647C13.7551 19.4094 13.8877 18.8399 13.954 18.25H18.748C18.9849 16.8458 19.1026 15.4241 19.0999 14C19.0999 12.4989 18.9758 11.0675 18.7497 9.75H9.2501C9.21966 9.92816 9.19133 10.1067 9.1651 10.2855C8.63345 10.0748 8.07971 9.92482 7.5144 9.8384L7.528 9.75H2.8819C2.75471 10.082 2.6424 10.4195 2.5453 10.7615C1.7599 11.212 1.0612 11.7985 0.483201 12.4904ZM17.4373 5.3436C16.3918 3.103 15.1168 2.1 13.9999 2.1C12.883 2.1 11.608 3.103 10.5625 5.3436C10.1645 6.21496 9.84702 7.12086 9.6139 8.05H18.3893C18.1551 7.12074 17.8365 6.21483 17.4373 5.3436ZM7.8612 8.05C8.1604 6.7869 8.5531 5.6326 9.0223 4.6245C9.3385 3.9462 9.704 3.3104 10.1137 2.7494C7.40598 3.68806 5.12631 5.56948 3.6911 8.05H7.8612ZM24.3087 19.95H20.1369C19.8668 21.1282 19.4778 22.2759 18.9758 23.3755C18.6733 24.0343 18.3078 24.6622 17.8844 25.2506C20.5921 24.3119 22.8735 22.4305 24.3087 19.95ZM20.4701 18.25H25.1162C25.6211 16.9308 25.8982 15.496 25.8982 14C25.8982 12.504 25.6211 11.0692 25.1162 9.75H20.4701C20.6843 11.0896 20.7982 12.521 20.7982 14C20.7982 15.479 20.6843 16.9104 20.4701 18.25ZM24.307 8.05C22.8719 5.56938 20.5922 3.68792 17.8844 2.7494C18.2941 3.3104 18.6596 3.9462 18.9758 4.6245C19.445 5.6326 19.8377 6.7869 20.1369 8.05H24.307ZM11.115 20.9632C12.0159 19.7585 12.427 18.2573 12.2656 16.7616C12.1042 15.266 11.3823 13.8871 10.2451 12.9023C9.10802 11.9175 7.64008 11.3999 6.13675 11.4538C4.63343 11.5077 3.20631 12.129 2.14262 13.1927C1.07893 14.2564 0.457614 15.6835 0.403725 17.1869C0.349836 18.6902 0.867369 20.1581 1.85217 21.2952C2.83697 22.4324 4.21594 23.1543 5.71155 23.3157C7.20715 23.4771 8.70838 23.066 9.9131 22.1651L14.2481 26.5001C14.4084 26.6549 14.6231 26.7406 14.846 26.7387C15.0689 26.7367 15.2821 26.6473 15.4396 26.4897C15.5972 26.3322 15.6866 26.119 15.6886 25.8961C15.6905 25.6732 15.6048 25.4585 15.45 25.2982L11.115 20.9632ZM10.5999 17.4C10.5999 18.5272 10.1521 19.6082 9.35511 20.4052C8.55808 21.2022 7.47707 21.65 6.3499 21.65C5.22273 21.65 4.14173 21.2022 3.3447 20.4052C2.54767 19.6082 2.0999 18.5272 2.0999 17.4C2.0999 16.2728 2.54767 15.1918 3.3447 14.3948C4.14173 13.5978 5.22273 13.15 6.3499 13.15C7.47707 13.15 8.55808 13.5978 9.35511 14.3948C10.1521 15.1918 10.5999 16.2728 10.5999 17.4Z" fill="#F26622"/>
</svg>
