<svg width="30" height="26" viewBox="0 0 30 26" fill="none" xmlns="http://www.w3.org/2000/svg">
<path d="M15 2.37495C12.4793 2.37506 10.0151 3.12237 7.91898 4.52243C5.82282 5.9225 4.1887 7.91249 3.22311 10.241C2.25753 12.5694 2.00381 15.1318 2.49402 17.6044C2.98423 20.0771 4.19636 22.3489 5.97726 24.1328C6.07859 24.231 6.15936 24.3483 6.21485 24.478C6.27034 24.6077 6.29945 24.7472 6.30047 24.8883C6.3015 25.0294 6.27441 25.1692 6.22081 25.2997C6.1672 25.4302 6.08814 25.5487 5.98824 25.6483C5.88834 25.748 5.7696 25.8267 5.63896 25.8799C5.50831 25.9332 5.36837 25.9598 5.2273 25.9584C5.08623 25.957 4.94685 25.9275 4.8173 25.8716C4.68775 25.8158 4.57063 25.7347 4.47276 25.6331C2.39501 23.5517 0.980841 20.9012 0.408958 18.0165C-0.162925 15.1317 0.133142 12.1421 1.25975 9.42558C2.38635 6.70902 4.29293 4.38737 6.73856 2.75402C9.18418 1.12066 12.0591 0.248901 15 0.248901C17.9409 0.248901 20.8158 1.12066 23.2615 2.75402C25.7071 4.38737 27.6137 6.70902 28.7403 9.42558C29.8669 12.1421 30.1629 15.1317 29.5911 18.0165C29.0192 20.9012 27.605 23.5517 25.5273 25.6331C25.4294 25.7347 25.3123 25.8158 25.1827 25.8716C25.0532 25.9275 24.9138 25.957 24.7727 25.9584C24.6316 25.9598 24.4917 25.9332 24.3611 25.8799C24.2304 25.8267 24.1117 25.748 24.0118 25.6483C23.9119 25.5487 23.8328 25.4302 23.7792 25.2997C23.7256 25.1692 23.6985 25.0294 23.6995 24.8883C23.7006 24.7472 23.7297 24.6077 23.7852 24.478C23.8407 24.3483 23.9214 24.231 24.0228 24.1328C25.8037 22.3489 27.0158 20.0771 27.506 17.6044C27.9962 15.1318 27.7425 12.5694 26.7769 10.241C25.8113 7.91249 24.1772 5.9225 22.081 4.52243C19.9849 3.12237 17.5207 2.37506 15 2.37495ZM15 7.68745C13.5289 7.68734 12.0909 8.12348 10.8677 8.94072C9.64448 9.75795 8.69112 10.9196 8.12815 12.2787C7.56518 13.6378 7.41789 15.1333 7.70491 16.5761C7.99193 18.0189 8.70037 19.3442 9.74063 20.3843C9.84211 20.4823 9.92305 20.5996 9.97874 20.7292C10.0344 20.8588 10.0637 20.9983 10.065 21.1393C10.0662 21.2804 10.0393 21.4203 9.98588 21.5509C9.93246 21.6815 9.85356 21.8001 9.7538 21.8999C9.65404 21.9996 9.53541 22.0785 9.40483 22.1319C9.27426 22.1854 9.13435 22.2122 8.99327 22.211C8.85219 22.2098 8.71277 22.1805 8.58314 22.1248C8.45351 22.0691 8.33627 21.9882 8.23826 21.8867C6.90093 20.5494 5.9902 18.8455 5.62124 16.9905C5.25228 15.1356 5.44165 13.2129 6.16542 11.4656C6.88919 9.71828 8.11484 8.22483 9.68738 7.17409C11.2599 6.12336 13.1087 5.56253 15 5.56253C16.8913 5.56253 18.7401 6.12336 20.3126 7.17409C21.8852 8.22483 23.1108 9.71828 23.8346 11.4656C24.5584 13.2129 24.7477 15.1356 24.3788 16.9905C24.0098 18.8455 23.0991 20.5494 21.7618 21.8867C21.5614 22.0802 21.293 22.1873 21.0144 22.1849C20.7358 22.1825 20.4693 22.0707 20.2723 21.8738C20.0753 21.6768 19.9636 21.4103 19.9612 21.1317C19.9587 20.8531 20.0658 20.5847 20.2594 20.3843C21.2996 19.3442 22.0081 18.0189 22.2951 16.5761C22.5821 15.1333 22.4348 13.6378 21.8719 12.2787C21.3089 10.9196 20.3555 9.75795 19.1323 8.94072C17.9092 8.12348 16.4711 7.68734 15 7.68745ZM15 10.8749C13.8728 10.8749 12.7918 11.3227 11.9948 12.1197C11.1978 12.9168 10.75 13.9978 10.75 15.1249C10.75 16.2521 11.1978 17.3331 11.9948 18.1301C12.7918 18.9272 13.8728 19.3749 15 19.3749C16.1272 19.3749 17.2082 18.9272 18.0052 18.1301C18.8022 17.3331 19.25 16.2521 19.25 15.1249C19.25 13.9978 18.8022 12.9168 18.0052 12.1197C17.2082 11.3227 16.1272 10.8749 15 10.8749ZM12.875 15.1249C12.875 14.5614 13.0989 14.0209 13.4974 13.6223C13.8959 13.2238 14.4364 12.9999 15 12.9999C15.5636 12.9999 16.1041 13.2238 16.5026 13.6223C16.9011 14.0209 17.125 14.5614 17.125 15.1249C17.125 15.6885 16.9011 16.229 16.5026 16.6275C16.1041 17.0261 15.5636 17.2499 15 17.2499C14.4364 17.2499 13.8959 17.0261 13.4974 16.6275C13.0989 16.229 12.875 15.6885 12.875 15.1249Z" fill="url(#paint0_linear_614_4999)"/>
<defs>
<linearGradient id="paint0_linear_614_4999" x1="15" y1="0.248901" x2="15" y2="25.9585" gradientUnits="userSpaceOnUse">
<stop stop-color="#E34913"/>
<stop offset="1" stop-color="#B913E3"/>
</linearGradient>
</defs>
</svg>
