<svg width="34" height="34" viewBox="0 0 34 34" fill="none" xmlns="http://www.w3.org/2000/svg">
<path d="M1.27051 32.7347C1.28583 31.223 1.6844 29.7398 2.42894 28.424C3.21222 27.055 4.34107 25.9155 5.70268 25.1194C7.0643 24.3233 8.611 23.8985 10.1882 23.8875C13.3697 23.8947 16.3811 25.653 17.9475 28.424C18.6916 29.7391 19.0902 31.2214 19.1059 32.7323M24.0117 3.35874V1.36731M30.8092 5.80431L32.4388 4.66045M17.2092 5.80431L15.5772 4.66045M10.1858 19.6569C10.7876 19.6708 11.3862 19.5644 11.9463 19.3437C12.5064 19.123 13.0168 18.7926 13.4474 18.3719C13.878 17.9511 14.2201 17.4486 14.4537 16.8938C14.6873 16.3389 14.8077 15.743 14.8077 15.141C14.8077 14.5389 14.6873 13.943 14.4537 13.3882C14.2201 12.8333 13.878 12.3308 13.4474 11.91C13.0168 11.4893 12.5064 11.1589 11.9463 10.9382C11.3862 10.7176 10.7876 10.6111 10.1858 10.625C9.00623 10.6524 7.88418 11.1402 7.05961 11.9841C6.23503 12.828 5.77338 13.9611 5.77338 15.141C5.77338 16.3208 6.23503 17.4539 7.05961 18.2978C7.88418 19.1417 9.00623 19.6295 10.1858 19.6569ZM28.9489 12.2837C28.9448 11.6265 28.8109 10.9765 28.5549 10.3712C28.2989 9.76581 27.9259 9.21699 27.4572 8.7562C26.9885 8.29541 26.4334 7.93174 25.8238 7.68606C25.2142 7.44039 24.562 7.31755 23.9048 7.3246C23.2478 7.34497 22.6013 7.49492 22.0025 7.76583C21.4036 8.03675 20.8642 8.42329 20.4151 8.90326C19.9661 9.38324 19.6162 9.94719 19.3857 10.5627C19.1552 11.1783 19.0486 11.8333 19.0719 12.4902C19.1196 13.3687 19.3973 14.2193 19.8772 14.9567C20.3572 15.6941 21.0225 16.2923 21.8065 16.6916V19.1202C21.8109 19.263 21.8706 19.3985 21.973 19.4982C22.0754 19.5979 22.2125 19.6539 22.3554 19.6545H25.6607C25.804 19.6545 25.9417 19.5988 26.0446 19.499C26.1475 19.3993 26.2075 19.2634 26.2119 19.1202V16.6479C27.0198 16.2353 27.701 15.6118 28.1833 14.8435C28.6656 14.0752 28.9286 13.1907 28.9489 12.2837Z" stroke="url(#paint0_linear_614_4997)" stroke-width="2.42857" stroke-linecap="round" stroke-linejoin="round"/>
<defs>
<linearGradient id="paint0_linear_614_4997" x1="16.8547" y1="1.36731" x2="16.8547" y2="32.7347" gradientUnits="userSpaceOnUse">
<stop stop-color="#E34913"/>
<stop offset="1" stop-color="#B913E3"/>
</linearGradient>
</defs>
</svg>
