<svg width="31" height="29" viewBox="0 0 31 29" fill="none" xmlns="http://www.w3.org/2000/svg">
<path d="M9.4748 1.95C8.46035 1.95 7.48745 2.35299 6.77012 3.07032C6.05279 3.78764 5.64981 4.76055 5.64981 5.775C5.64981 6.78945 6.05279 7.76236 6.77012 8.47968C7.48745 9.19701 8.46035 9.6 9.4748 9.6C10.4893 9.6 11.4622 9.19701 12.1795 8.47968C12.8968 7.76236 13.2998 6.78945 13.2998 5.775C13.2998 4.76055 12.8968 3.78764 12.1795 3.07032C11.4622 2.35299 10.4893 1.95 9.4748 1.95ZM3.9498 5.775C3.9498 4.30968 4.5319 2.90437 5.56804 1.86823C6.60418 0.832096 8.00948 0.25 9.4748 0.25C10.9401 0.25 12.3454 0.832096 13.3816 1.86823C14.4177 2.90437 14.9998 4.30968 14.9998 5.775C14.9998 7.24032 14.4177 8.64563 13.3816 9.68176C12.3454 10.7179 10.9401 11.3 9.4748 11.3C8.00948 11.3 6.60418 10.7179 5.56804 9.68176C4.5319 8.64563 3.9498 7.24032 3.9498 5.775ZM22.6498 11.3C21.5226 11.3 20.4416 10.8522 19.6446 10.0552C18.8476 9.25817 18.3998 8.17717 18.3998 7.05C18.3998 5.92283 18.8476 4.84183 19.6446 4.0448C20.4416 3.24777 21.5226 2.8 22.6498 2.8C23.777 2.8 24.858 3.24777 25.655 4.0448C26.452 4.84183 26.8998 5.92283 26.8998 7.05C26.8998 8.17717 26.452 9.25817 25.655 10.0552C24.858 10.8522 23.777 11.3 22.6498 11.3ZM17.1078 13.731C16.508 13.256 15.7649 12.9983 14.9998 13H3.9498C3.04807 13 2.18327 13.3582 1.54564 13.9958C0.908018 14.6335 0.549805 15.4983 0.549805 16.4V16.5428C0.551531 16.6423 0.55834 16.7415 0.570205 16.8403C0.690554 17.942 1.08187 18.9968 1.7092 19.9105C2.9009 21.636 5.2027 23.2 9.4748 23.2C10.9827 23.2 12.2458 23.0045 13.2998 22.6781V20.8778C12.341 21.2535 11.0949 21.5 9.4748 21.5C5.67191 21.5 3.9362 20.1417 3.1083 18.9449C2.64452 18.2685 2.35382 17.4886 2.2617 16.6737C2.25709 16.6268 2.25369 16.5797 2.2515 16.5326L2.2498 16.5037V16.4C2.2498 15.9491 2.42891 15.5167 2.74772 15.1979C3.06653 14.8791 3.49894 14.7 3.9498 14.7H14.9998C15.3602 14.7 15.6951 14.8122 15.9688 15.0026C16.2238 14.9006 16.4941 14.8224 16.7712 14.7714C16.8392 14.4059 16.9531 14.0557 17.1078 13.731ZM22.6498 4.5C21.9735 4.5 21.3249 4.76866 20.8467 5.24688C20.3685 5.7251 20.0998 6.3737 20.0998 7.05C20.0998 7.7263 20.3685 8.3749 20.8467 8.85312C21.3249 9.33134 21.9735 9.6 22.6498 9.6C23.3261 9.6 23.9747 9.33134 24.4529 8.85312C24.9311 8.3749 25.1998 7.7263 25.1998 7.05C25.1998 6.3737 24.9311 5.7251 24.4529 5.24688C23.9747 4.76866 23.3261 4.5 22.6498 4.5ZM18.3998 16.4V15.55C18.3998 14.8737 18.6685 14.2251 19.1467 13.7469C19.6249 13.2687 20.2735 13 20.9498 13H24.3498C25.0261 13 25.6747 13.2687 26.1529 13.7469C26.6311 14.2251 26.8998 14.8737 26.8998 15.55V16.4H27.7498C28.4261 16.4 29.0747 16.6687 29.5529 17.1469C30.0311 17.6251 30.2998 18.2737 30.2998 18.95V21.5H26.8998V20.65C26.8998 20.4246 26.8103 20.2084 26.6508 20.049C26.4914 19.8896 26.2752 19.8 26.0498 19.8C25.8244 19.8 25.6082 19.8896 25.4488 20.049C25.2894 20.2084 25.1998 20.4246 25.1998 20.65V21.5H20.0998V20.65C20.0998 20.4246 20.0103 20.2084 19.8508 20.049C19.6914 19.8896 19.4752 19.8 19.2498 19.8C19.0244 19.8 18.8082 19.8896 18.6488 20.049C18.4894 20.2084 18.3998 20.4246 18.3998 20.65V21.5H14.9998V18.95C14.9998 18.2737 15.2685 17.6251 15.7467 17.1469C16.2249 16.6687 16.8735 16.4 17.5498 16.4H18.3998ZM20.0998 15.55V16.4H25.1998V15.55C25.1998 15.3246 25.1103 15.1084 24.9508 14.949C24.7914 14.7896 24.5752 14.7 24.3498 14.7H20.9498C20.7244 14.7 20.5082 14.7896 20.3488 14.949C20.1894 15.1084 20.0998 15.3246 20.0998 15.55ZM26.8998 23.2H30.2998V25.75C30.2998 26.4263 30.0311 27.0749 29.5529 27.5531C29.0747 28.0313 28.4261 28.3 27.7498 28.3H17.5498C16.8735 28.3 16.2249 28.0313 15.7467 27.5531C15.2685 27.0749 14.9998 26.4263 14.9998 25.75V23.2H18.3998V24.05C18.3998 24.2754 18.4894 24.4916 18.6488 24.651C18.8082 24.8104 19.0244 24.9 19.2498 24.9C19.4752 24.9 19.6914 24.8104 19.8508 24.651C20.0103 24.4916 20.0998 24.2754 20.0998 24.05V23.2H25.1998V24.05C25.1998 24.2754 25.2894 24.4916 25.4488 24.651C25.6082 24.8104 25.8244 24.9 26.0498 24.9C26.2752 24.9 26.4914 24.8104 26.6508 24.651C26.8103 24.4916 26.8998 24.2754 26.8998 24.05V23.2Z" fill="url(#paint0_linear_614_5001)"/>
<defs>
<linearGradient id="paint0_linear_614_5001" x1="15.4248" y1="0.25" x2="15.4248" y2="28.3" gradientUnits="userSpaceOnUse">
<stop stop-color="#E34913"/>
<stop offset="1" stop-color="#B913E3"/>
</linearGradient>
</defs>
</svg>
