<svg width="32" height="32" viewBox="0 0 32 32" fill="none" xmlns="http://www.w3.org/2000/svg">
<path fill-rule="evenodd" clip-rule="evenodd" d="M16.0004 0.926636C15.6998 0.926636 15.4115 1.04604 15.199 1.25858C14.9865 1.47112 14.867 1.75939 14.867 2.05997V6.98317C14.867 7.28375 14.9865 7.57202 15.199 7.78456C15.4115 7.9971 15.6998 8.1165 16.0004 8.1165C16.301 8.1165 16.5892 7.9971 16.8018 7.78456C17.0143 7.57202 17.1337 7.28375 17.1337 6.98317V3.24317C19.9915 3.49729 22.6812 4.70367 24.7715 6.66888C26.8618 8.63409 28.2317 11.2443 28.6615 14.081C29.0913 16.9177 28.5562 19.8165 27.1418 22.3127C25.7275 24.809 23.5159 26.758 20.8616 27.8472C18.2074 28.9365 15.2643 29.103 12.5041 28.32C9.74399 27.5369 7.32673 25.8497 5.63992 23.5289C3.95311 21.2081 3.09447 18.3881 3.20165 15.521C3.30884 12.654 4.37566 9.90596 6.23105 7.71757C6.33218 7.60485 6.4097 7.47301 6.45903 7.32983C6.50835 7.18665 6.52848 7.03503 6.51823 6.88394C6.50797 6.73285 6.46754 6.58535 6.39932 6.45015C6.3311 6.31494 6.23648 6.19479 6.12104 6.09677C6.0056 5.99875 5.87169 5.92486 5.72721 5.87947C5.58274 5.83408 5.43063 5.8181 5.27987 5.83248C5.12912 5.84686 4.98278 5.89131 4.84949 5.9632C4.7162 6.03509 4.59867 6.13296 4.50385 6.25104C2.28271 8.87027 1.02257 12.1694 0.932003 15.6025C0.841439 19.0355 1.92588 22.3965 4.00583 25.1292C6.08579 27.8619 9.03653 29.8024 12.3697 30.6296C15.7028 31.4567 19.2184 31.1209 22.3347 29.6776C25.4509 28.2344 27.9809 25.7703 29.5058 22.6933C31.0308 19.6162 31.4593 16.1107 30.7204 12.7569C29.9815 9.40308 28.1195 6.40215 25.4427 4.25081C22.7658 2.09947 19.4346 0.926701 16.0004 0.926636ZM14.2777 17.3146L8.57478 9.36544C8.49885 9.25632 8.4637 9.12397 8.47548 8.99156C8.48727 8.85914 8.54523 8.73508 8.63923 8.64108C8.73323 8.54708 8.85729 8.48912 8.9897 8.47734C9.12212 8.46556 9.25446 8.50071 9.36358 8.57664L17.3173 14.2773C17.5732 14.4615 17.786 14.6992 17.941 14.9738C18.096 15.2485 18.1894 15.5535 18.2148 15.8678C18.2403 16.1821 18.1971 16.4982 18.0882 16.7942C17.9794 17.0901 17.8076 17.3589 17.5846 17.5819C17.3616 17.8049 17.0928 17.9767 16.7969 18.0855C16.5009 18.1944 16.1848 18.2376 15.8705 18.2122C15.5562 18.1867 15.2512 18.0933 14.9765 17.9383C14.7019 17.7834 14.4642 17.5705 14.28 17.3146" fill="url(#paint0_linear_614_5003)"/>
<defs>
<linearGradient id="paint0_linear_614_5003" x1="16.0001" y1="0.926636" x2="16.0001" y2="31.0733" gradientUnits="userSpaceOnUse">
<stop stop-color="#E34913"/>
<stop offset="1" stop-color="#B913E3"/>
</linearGradient>
</defs>
</svg>
