<svg width="28" height="28" viewBox="0 0 28 28" fill="none" xmlns="http://www.w3.org/2000/svg">
<path d="M26.1371 9.88759C27.6996 8.32509 26.9871 6.50009 26.1371 5.61259L22.3871 1.86259C20.8121 0.300094 18.9996 1.01259 18.1121 1.86259L15.9871 4.00009H12.7496C10.3746 4.00009 8.99961 5.25009 8.29961 6.68759L2.74961 12.2376V17.2376L1.86211 18.1126C0.299606 19.6876 1.01211 21.5001 1.86211 22.3876L5.61211 26.1376C6.28711 26.8126 7.01211 27.0626 7.69961 27.0626C8.58711 27.0626 9.39961 26.6251 9.88711 26.1376L13.2621 22.7501H17.7496C19.8746 22.7501 20.9496 21.4251 21.3371 20.1251C22.7496 19.7501 23.5246 18.6751 23.8371 17.6251C25.7746 17.1251 26.4996 15.2876 26.4996 14.0001V10.2501H25.7621L26.1371 9.88759ZM23.9996 14.0001C23.9996 14.5626 23.7621 15.2501 22.7496 15.2501H21.4996V16.5001C21.4996 17.0626 21.2621 17.7501 20.2496 17.7501H18.9996V19.0001C18.9996 19.5626 18.7621 20.2501 17.7496 20.2501H12.2371L8.13711 24.3501C7.74961 24.7126 7.52461 24.5001 7.38711 24.3626L3.64961 20.6376C3.28711 20.2501 3.49961 20.0251 3.63711 19.8876L5.24961 18.2626V13.2626L7.74961 10.7626V12.7501C7.74961 14.2626 8.74961 16.5001 11.4996 16.5001C14.2496 16.5001 15.2496 14.2626 15.2496 12.7501H23.9996V14.0001ZM24.3621 8.11259L22.2371 10.2501H12.7496V12.7501C12.7496 13.3126 12.5121 14.0001 11.4996 14.0001C10.4871 14.0001 10.2496 13.3126 10.2496 12.7501V9.00009C10.2496 8.42509 10.4621 6.50009 12.7496 6.50009H17.0121L19.8621 3.65009C20.2496 3.28759 20.4746 3.50009 20.6121 3.63759L24.3496 7.36259C24.7121 7.75009 24.4996 7.97509 24.3621 8.11259Z" fill="#FEFEFE"/>
</svg>
