<svg width="163" height="22" viewBox="0 0 163 22" fill="none" xmlns="http://www.w3.org/2000/svg">
<path d="M2.57422 1.87264C11.6837 1.04769 24.3281 1.73401 24.3281 1.73401V5.09697H15.7625V19.5783H11.5477V5.09697H2.71018L2.57422 1.87264Z" fill="#86827E"/>
<path d="M73.5667 14.3623C73.5749 14.7279 73.5106 15.0914 73.3777 15.4316C73.2448 15.7718 73.046 16.0817 72.7928 16.3432C72.5396 16.6048 72.2372 16.8126 71.9034 16.9545C71.5696 17.0964 71.211 17.1695 70.8488 17.1696C70.4866 17.1697 70.128 17.0968 69.7941 16.955C69.4602 16.8133 69.1578 16.6056 68.9045 16.3442C68.6511 16.0828 68.4521 15.773 68.3191 15.4329C68.186 15.0928 68.1216 14.7293 68.1296 14.3637C68.1453 13.6464 68.4385 12.9638 68.9465 12.462C69.4545 11.9603 70.1368 11.6793 70.8475 11.6791C71.5581 11.6789 72.2406 11.9596 72.7488 12.4611C73.2571 12.9626 73.5506 13.645 73.5667 14.3623Z" fill="#86827E"/>
<path d="M47.8689 1.59674V8.87172H36.2932V1.59674L31.9424 1.87264V19.7924L36.2932 19.9901V12.1674H47.8689V19.9901L52.2224 19.7924V1.87264L47.8689 1.59674ZM58.8628 19.5783L68.924 1.87264H73.1388L83.336 19.5783L78.5773 19.9901L71.0994 6.12645H70.6915L63.0776 19.8528L58.8628 19.5783ZM89.7262 19.5783V2.00853H93.6691V16.4212H107.537V19.5783C107.537 19.5783 98.4277 21.5 89.7262 19.5783ZM114.335 19.7169V1.87264C114.335 1.87264 126.844 0.499999 133.233 2.0099V5.30423L118.787 5.4415V9.01036H127.116V12.442H118.788V16.5599H133.506V19.8542C133.506 19.8528 122.629 21.3627 114.335 19.7169ZM160.154 1.734V5.30423H144.383V8.8731H157.299C157.299 8.8731 160.426 10.383 160.426 11.8929V16.5585C160.426 19.5783 157.299 20.4033 154.445 20.4033C150.095 20.4033 142.889 20.2646 140.441 19.8542V16.5599H156.619V12.5778H144.52C142.617 12.5778 140.577 11.4797 140.577 10.1071V4.75381C140.577 2.97075 143.025 1.734 144.928 1.734H160.154Z" fill="#86827E"/>
</svg>
