<svg width="108" height="26" viewBox="0 0 108 26" fill="none" xmlns="http://www.w3.org/2000/svg">
<g clip-path="url(#clip0_94_4771)">
<path d="M22.5311 22.0009C22.5311 23.6861 21.1272 25.054 20.0701 25.054H8.11603L23.1517 0.988861H3.0485V4.97685H4.07998C4.07998 3.29161 5.1671 1.92797 6.22854 1.92797H16.5562L1.43066 25.9889H23.2415V22.0009H22.5311Z" fill="#86827E"/>
<path d="M48.6176 24.042L36.9845 0.988861L26.3231 24.0592C26.1347 24.5652 25.1075 25.2041 23.6523 25.2041V25.9846H29.3276V25.2041C28.2747 25.2041 27.1448 24.681 27.4187 24.0549L29.9825 18.4846H39.8179L42.6127 24.042C42.9295 24.6038 41.5128 25.2084 40.0533 25.2084V25.9889H51.8661L51.8704 25.2084C50.0813 25.2041 48.9899 24.6467 48.6176 24.042ZM30.4105 17.5841L34.6648 8.22728L39.4156 17.5841H30.4105Z" fill="#86827E"/>
<path d="M53.2227 1.9537C54.9518 1.9537 56.3813 2.39967 56.3813 2.93998C56.3813 7.22814 56.3727 24.0163 56.3813 24.0163C56.3813 24.5909 54.9732 25.2299 53.2398 25.2299L53.2355 25.9846H64.8001V25.2813C63.0838 25.2813 61.6928 24.5952 61.6928 24.0206V1.74358H65.0269C68.2369 1.74358 70.8391 4.4151 70.8391 7.44684C70.8391 10.4786 68.2369 12.94 65.0226 12.94H62.7157C62.7157 12.94 70.531 24.7967 70.5438 24.7967C70.852 25.247 71.0061 25.9889 71.0061 25.9889H79.4334V25.2856C77.8113 25.2856 76.9638 24.6124 76.493 24.0206L68.9688 14.1835C72.5811 13.9434 75.3759 11.0189 75.3759 7.54546C75.3759 3.91768 72.2644 0.988861 68.4252 0.988861H53.2227V1.9537Z" fill="#86827E"/>
<path d="M105.182 24.042L93.549 0.988861L82.8875 24.0592C82.6992 24.5652 81.6763 25.2299 80.2168 25.2299V25.9846H85.8921V25.2813C84.8392 25.2813 83.7136 24.681 83.9832 24.0549L86.5469 18.4846H96.3824L99.1772 24.042C99.4982 24.6038 98.0772 25.2341 96.6178 25.2341V25.9889H108.431L108.435 25.2599C106.646 25.2599 105.554 24.6467 105.182 24.042ZM86.9706 17.5841L91.225 8.22728L95.9758 17.5841H86.9706Z" fill="#86827E"/>
</g>
<defs>
<clipPath id="clip0_94_4771">
<rect width="107" height="25" fill="white" transform="translate(0.75 0.5)"/>
</clipPath>
</defs>
</svg>
